<?xml version="1.0" standalone="no"?>
<!DOCTYPE svg PUBLIC "-//W3C//DTD SVG 20010904//EN"
 "http://www.w3.org/TR/2001/REC-SVG-20010904/DTD/svg10.dtd">
<svg version="1.0" xmlns="http://www.w3.org/2000/svg"
 width="892.000000pt" height="892.000000pt" viewBox="0 0 892.000000 892.000000"
 preserveAspectRatio="xMidYMid meet">
<metadata>
Created by potrace 1.11, written by Peter Selinger 2001-2013
</metadata>
<g transform="translate(0.000000,892.000000) scale(0.100000,-0.100000)"
fill="#000000" stroke="none">
<path d="M4205 8914 c-921 -70 -1689 -348 -2395 -867 -339 -249 -704 -617
-951 -957 -478 -657 -746 -1362 -841 -2210 -17 -152 -17 -688 0 -840 96 -856
370 -1570 855 -2230 243 -331 606 -694 937 -937 562 -413 1220 -694 1890 -807
292 -50 424 -60 760 -60 336 0 468 10 760 60 670 113 1328 394 1890 807 331
243 694 606 937 937 413 562 694 1220 807 1890 50 292 60 424 60 760 0 336
-10 468 -60 760 -113 670 -394 1328 -807 1890 -243 331 -606 694 -937 937
-647 476 -1362 754 -2180 848 -128 15 -612 28 -725 19z m-466 -2318 c9 -11 11
-268 8 -1053 -3 -932 -5 -1048 -20 -1133 -91 -493 -407 -806 -947 -938 -101
-24 -119 -25 -471 -29 -330 -4 -368 -3 -383 12 -14 15 -16 55 -16 375 l0 359
22 15 c19 14 68 16 328 16 332 0 382 6 468 57 61 35 119 97 152 164 59 117 58
86 62 1162 4 837 7 990 19 998 8 5 183 9 390 9 313 0 379 -2 388 -14z m1911 4
c360 -45 662 -170 877 -364 75 -68 166 -193 218 -300 135 -277 147 -694 27
-958 -83 -184 -215 -322 -402 -422 l-81 -43 96 -46 c116 -56 172 -93 249 -166
108 -103 192 -244 243 -408 26 -83 27 -99 27 -283 0 -216 -13 -301 -73 -456
-93 -240 -296 -450 -556 -574 -165 -78 -394 -138 -610 -158 -61 -6 -810 -8
-1905 -5 -1520 5 -1809 8 -1832 20 l-28 14 0 349 0 349 30 16 c26 13 232 15
1797 15 1165 0 1797 4 1853 10 318 39 487 171 519 405 33 235 -108 417 -376
485 -135 35 -258 40 -999 40 l-724 0 0 1227 c0 1127 1 1228 17 1245 15 17 53
18 782 18 474 0 799 -4 851 -10z"/>
<path d="M4800 5380 l0 -482 373 5 c397 5 430 8 571 61 171 65 268 172 297
329 36 193 -70 393 -254 481 -149 72 -197 79 -614 83 l-373 5 0 -482z"/>
</g>
</svg>
